<svg width="282" height="82" viewBox="0 0 282 82" fill="none" xmlns="http://www.w3.org/2000/svg">
<path d="M30.1429 78.6919L20.1769 60.1835H18.682V78.6919H4.72947V28.5056H26.726C30.7599 28.5056 34.1768 29.2175 36.9768 30.6412C39.7768 32.0175 41.8887 33.9395 43.3124 36.4073C44.7361 38.8276 45.448 41.5564 45.448 44.5937C45.448 48.0106 44.4988 51.0242 42.6005 53.6343C40.7497 56.1971 38.0209 58.0242 34.4141 59.1157L45.7327 78.6919H30.1429ZM18.682 50.6445H25.587C27.4853 50.6445 28.9091 50.1937 29.8582 49.292C30.8074 48.3903 31.2819 47.0852 31.2819 45.3767C31.2819 43.7632 30.7836 42.5056 29.787 41.6039C28.8379 40.6547 27.4379 40.1802 25.587 40.1802H18.682V50.6445ZM89.9488 58.2615C89.9488 59.353 89.8776 60.4445 89.7353 61.536H63.3252C63.4676 63.7191 64.0608 65.3563 65.1048 66.4479C66.1964 67.4919 67.5726 68.014 69.2336 68.014C71.5591 68.014 73.2201 66.9699 74.2167 64.8818H89.0946C88.4776 67.6343 87.2675 70.1021 85.4641 72.2851C83.7082 74.4207 81.4777 76.1055 78.7726 77.3394C76.0675 78.5733 73.0777 79.1902 69.8031 79.1902C65.8642 79.1902 62.3523 78.3597 59.2676 76.6987C56.2303 75.0377 53.8337 72.6648 52.0778 69.5801C50.3693 66.4953 49.5151 62.8648 49.5151 58.6886C49.5151 54.5123 50.3693 50.9055 52.0778 47.8683C53.7862 44.7835 56.1591 42.4107 59.1964 40.7496C62.2811 39.0886 65.8167 38.2581 69.8031 38.2581C73.7421 38.2581 77.2302 39.0649 80.2675 40.6785C83.3048 42.292 85.6777 44.6174 87.3861 47.6547C89.0946 50.6445 89.9488 54.1801 89.9488 58.2615ZM75.7116 54.7733C75.7116 53.0649 75.1421 51.736 74.0031 50.7869C72.8641 49.7903 71.4404 49.292 69.7319 49.292C68.0235 49.292 66.6235 49.7666 65.532 50.7157C64.4404 51.6174 63.7286 52.9699 63.3964 54.7733H75.7116ZM93.3808 58.6886C93.3808 54.5598 94.235 50.953 95.9435 47.8683C97.6519 44.7835 100.025 42.4107 103.062 40.7496C106.147 39.0886 109.659 38.2581 113.598 38.2581C118.676 38.2581 122.947 39.6581 126.411 42.4581C129.876 45.2106 132.106 49.0784 133.103 54.0615H118.296C117.442 51.4513 115.781 50.1462 113.313 50.1462C111.557 50.1462 110.157 50.8818 109.113 52.353C108.116 53.7767 107.618 55.8886 107.618 58.6886C107.618 61.4886 108.116 63.6241 109.113 65.0953C110.157 66.5665 111.557 67.3021 113.313 67.3021C115.828 67.3021 117.489 65.997 118.296 63.3869H133.103C132.106 68.3224 129.876 72.1902 126.411 74.9902C122.947 77.7902 118.676 79.1902 113.598 79.1902C109.659 79.1902 106.147 78.3597 103.062 76.6987C100.025 75.0377 97.6519 72.6648 95.9435 69.5801C94.235 66.4953 93.3808 62.8648 93.3808 58.6886ZM177.055 58.2615C177.055 59.353 176.983 60.4445 176.841 61.536H150.431C150.573 63.7191 151.167 65.3563 152.211 66.4479C153.302 67.4919 154.678 68.014 156.339 68.014C158.665 68.014 160.326 66.9699 161.322 64.8818H176.2C175.583 67.6343 174.373 70.1021 172.57 72.2851C170.814 74.4207 168.583 76.1055 165.878 77.3394C163.173 78.5733 160.183 79.1902 156.909 79.1902C152.97 79.1902 149.458 78.3597 146.373 76.6987C143.336 75.0377 140.939 72.6648 139.184 69.5801C137.475 66.4953 136.621 62.8648 136.621 58.6886C136.621 54.5123 137.475 50.9055 139.184 47.8683C140.892 44.7835 143.265 42.4107 146.302 40.7496C149.387 39.0886 152.922 38.2581 156.909 38.2581C160.848 38.2581 164.336 39.0649 167.373 40.6785C170.411 42.292 172.783 44.6174 174.492 47.6547C176.2 50.6445 177.055 54.1801 177.055 58.2615ZM162.817 54.7733C162.817 53.0649 162.248 51.736 161.109 50.7869C159.97 49.7903 158.546 49.292 156.838 49.292C155.129 49.292 153.729 49.7666 152.638 50.7157C151.546 51.6174 150.834 52.9699 150.502 54.7733H162.817ZM206.327 66.8038V78.6919H200.276C190.073 78.6919 184.971 73.6377 184.971 63.5292V50.3598H180.059V38.7564H184.971V29.0751H198.995V38.7564H206.256V50.3598H198.995V63.7428C198.995 64.8343 199.232 65.6174 199.707 66.0919C200.229 66.5665 201.083 66.8038 202.27 66.8038H206.327ZM236.289 66.8038V78.6919H230.238C220.035 78.6919 214.933 73.6377 214.933 63.5292V50.3598H210.022V38.7564H214.933V29.0751H228.957V38.7564H236.218V50.3598H228.957V63.7428C228.957 64.8343 229.194 65.6174 229.669 66.0919C230.191 66.5665 231.045 66.8038 232.232 66.8038H236.289Z" fill="black"/>
<path fill-rule="evenodd" clip-rule="evenodd" d="M259.937 49.2171C257.278 49.2219 254.729 50.2971 252.849 52.2069C250.969 54.1168 249.912 56.7054 249.91 59.4053C249.911 62.1061 250.967 64.6961 252.847 66.607C254.727 68.518 257.277 69.5939 259.937 69.5987C262.597 69.5939 265.147 68.518 267.027 66.607C268.906 64.6961 269.963 62.1061 269.964 59.4053C269.961 56.7054 268.904 54.1168 267.025 52.2069C265.145 50.2971 262.596 49.2219 259.937 49.2171V49.2171Z" fill="#473144"/>
<path fill-rule="evenodd" clip-rule="evenodd" d="M260.008 38.8758C248.773 38.8758 239.668 48.1124 239.668 59.509C239.668 62.2205 240.194 64.9054 241.216 67.4103C242.239 69.9153 243.737 72.1912 245.626 74.108C247.515 76.0248 249.757 77.545 252.225 78.5817C254.693 79.6184 257.338 80.1513 260.008 80.1499C271.239 80.1499 280.352 70.9134 280.352 59.509C280.352 48.115 271.239 38.8758 260.008 38.8758V38.8758ZM259.937 72.7519C256.453 72.7471 253.113 71.339 250.65 68.8368C248.188 66.3346 246.803 62.9426 246.801 59.4053C246.804 55.8684 248.189 52.4771 250.651 49.9754C253.114 47.4737 256.453 46.0661 259.937 46.0613C263.421 46.0661 266.76 47.4737 269.223 49.9754C271.685 52.4771 273.07 55.8684 273.072 59.4053C273.069 62.9422 271.684 66.3334 269.222 68.8353C266.76 71.3372 263.421 72.7457 259.937 72.7519V72.7519Z" fill="black"/>
<path d="M186.275 8.67249C188.807 8.66791 199.313 14.3232 199.326 35.341C199.338 42.0623 194.426 42.0608 194.435 46.2653C194.443 50.4621 194.453 62.8064 194.453 62.8064C194.453 62.8064 189.065 65.5661 185.06 62.6781L185.007 9.26964C185.011 9.27116 184.996 8.67096 186.275 8.67249Z" fill="black"/>
<path d="M215.632 9.33152C216.079 7.85881 216.963 9.3143 216.963 9.3143C216.963 9.3143 217.273 24.5579 219.284 24.7238C221.296 24.8897 219.746 9.03885 222.127 8.73523C224.339 8.43944 223.076 24.9757 225.092 24.8083C227.1 24.6299 227.439 9.39255 227.439 9.39255C227.439 9.39255 228.333 7.93862 228.774 9.40038C234.228 27.4141 229.815 34.7776 229.815 34.7776C229.815 34.7776 229.07 36.3255 227.301 36.3333C227.135 36.3255 227.312 54.7801 227.301 60.5332C227.304 63.33 217.137 46.1901 217.057 70.4519C217.064 64.6988 217.217 36.2566 217.057 36.2597C215.282 36.2597 214.538 34.7135 214.538 34.7135C214.538 34.7135 210.143 27.3546 215.632 9.33152Z" fill="black"/>
</svg>
